<svg xmlns="http://www.w3.org/2000/svg" width="940" height="390" viewBox="0 0 940 390" role="img" aria-labelledby="title desc">
  <title id="title">AlphaChess Capability Progress</title>
  <desc id="desc">Simple line chart of AlphaChess capability over real timestamps, similar to an AlphaGo rating-over-time graph. The y axis is a conservative direct Stockfish score-rate proxy: score divided by max(games, 4), with the best value seen so far plotted over time. Data points include 2026-05-18T09:14:04-07:00 0.0/2 at 0 percent, 2026-05-18T13:18:35-07:00 0.0/2 at 0 percent, 2026-05-18T16:03:41-07:00 0.5/2 at 12.5 percent, 2026-05-18T23:13:16-07:00 0.5/1 at 12.5 percent after conservative scaling, 2026-05-19T00:04:01-07:00 0.5/1 at 12.5 percent after conservative scaling, 2026-05-19T10:31:47-07:00 0.5/4 at 12.5 percent, 2026-05-19T13:57:45-07:00 0.5/2 at 12.5 percent after conservative scaling, 2026-05-19T18:01:50-07:00 0.5/2 at 12.5 percent after conservative scaling, 2026-05-19T18:48:42-07:00 0.0/2 at 0 percent, 2026-05-19T19:11:04-07:00 0.0/2 guarded check at 0 percent, 2026-05-19T19:34:49-07:00 broad65k gate at 0 percent, 2026-05-19T19:56:50-07:00 expert-mix gate at 0 percent, 2026-05-19T20:49:36-07:00 fullnet192 puzzle-mix gate at 0 percent, 2026-05-19T21:22:07-07:00 fullnet192 CPU loss-overfit gate at 0 percent, 2026-05-19T21:50:00-07:00 fullnet192 holdout-selected gate at 0 percent, 2026-05-19T22:01:55-07:00 fullnet192 latest-loss repair gate at 0 percent, 2026-05-19T22:07:00-07:00 strict root-guard gate at 0 percent, 2026-05-19T22:33:45-07:00 higher-time teacher gate at 0 percent, 2026-05-19T23:13:05-07:00 broad/t05 hard-negative gate at 0 percent, 2026-05-19T23:33:20-07:00 top-3 hard-negative gate at 0 percent, 2026-05-19T23:49:30-07:00 opening/ELO2000/tactical gate at 0 percent, 2026-05-20T00:22:48-07:00 Stockfish-confirmed model-blunder gate at 0 percent, 2026-05-20T00:40:04-07:00 full-network confirmed-blunder gate at 0 percent, 2026-05-20T00:45:14-07:00 bad-margin full-network confirmed-blunder gate at 0 percent, 2026-05-20T00:58:51-07:00 broad73k full-network confirmed-blunder gate at 0 percent, 2026-05-20T01:03:44-07:00 exact bad-action book parent gate at 0 percent, 2026-05-20T01:04:09-07:00 exact bad-action book full-network gate at 0 percent, 2026-05-20T01:07:29-07:00 exact bad-action book plus strict root guards gate at 0 percent, 2026-05-20T01:14:58-07:00 64-sim exact bad-action book plus strict root guards gate at 0 percent, 2026-05-20T01:34:48-07:00 top-3 confirmed-blunder full-network gate at 0 percent, 2026-05-20T01:39:08-07:00 top-3 confirmed-blunder bad-action book strict gate at 0 percent, 2026-05-20T01:53:38-07:00 direct-loss full-network gate at 0 percent, 2026-05-20T01:55:16-07:00 direct-loss full-network bad-action book strict gate at 0 percent, 2026-05-20T02:00:27-07:00 direct-loss policy-head gate at 0 percent, 2026-05-20T02:03:04-07:00 direct-loss policy-head bad-action book strict gate at 0 percent, 2026-05-20T02:29:22-07:00 all-history direct-loss full-network gate at 0 percent, 2026-05-20T02:31:10-07:00 all-history direct-loss bad-action book strict gate at 0 percent, 2026-05-20T02:43:05-07:00 recent direct-loss full-network gate at 0 percent, 2026-05-20T02:44:39-07:00 recent direct-loss bad-action book strict gate at 0 percent, 2026-05-20T03:02:04-07:00 context direct-loss full-network gate at 0 percent, 2026-05-20T03:05:53-07:00 context direct-loss bad-action book strict gate at 0 percent, 2026-05-20T03:08:48-07:00 context direct-loss 64-simulation gate at 0 percent, 2026-05-20T03:13:57-07:00 context direct-loss value-head gate at 0 percent, 2026-05-20T03:24:21-07:00 first-blunder context policy-head gate at 0 percent, and 2026-05-20T03:43:09-07:00 first-blunder puzzle-line full-network gate at 0 percent. The 50 percent line marks the local Stockfish promotion gate.</desc>
  <rect width="940" height="390" fill="#fbfbf8"/>

  <text x="92" y="34" font-family="Arial, sans-serif" font-size="20" font-weight="700" fill="#202124">AlphaChess capability progress</text>
  <text x="92" y="56" font-family="Arial, sans-serif" font-size="12" fill="#5f6368">Best conservative direct-Stockfish score rate: score / max(games, 4). Not calibrated Elo.</text>

  <g font-family="Arial, sans-serif" font-size="11" fill="#5f6368">
    <line x1="92" y1="68" x2="92" y2="310" stroke="#5f6368" stroke-width="1"/>
    <line x1="92" y1="310" x2="850" y2="310" stroke="#5f6368" stroke-width="1"/>

    <line x1="92" y1="68" x2="850" y2="68" stroke="#d04a3a" stroke-width="1.5" stroke-dasharray="6 5"/>
    <line x1="92" y1="128.5" x2="850" y2="128.5" stroke="#e3e4df" stroke-width="1"/>
    <line x1="92" y1="189" x2="850" y2="189" stroke="#e3e4df" stroke-width="1"/>
    <line x1="92" y1="249.5" x2="850" y2="249.5" stroke="#e3e4df" stroke-width="1"/>
    <line x1="92" y1="310" x2="850" y2="310" stroke="#e3e4df" stroke-width="1"/>

    <text x="58" y="72" text-anchor="end">50%</text>
    <text x="58" y="132.5" text-anchor="end">37.5%</text>
    <text x="58" y="193" text-anchor="end">25%</text>
    <text x="58" y="253.5" text-anchor="end">12.5%</text>
    <text x="58" y="314" text-anchor="end">0%</text>
    <text x="858" y="72" fill="#a23b31">promotion gate</text>

    <text x="92" y="335" text-anchor="middle">05-18 09:14</text>
    <text x="213.8" y="335" text-anchor="middle">05-18 16:03</text>
    <text x="341.5" y="335" text-anchor="middle">05-18 23:13</text>
    <text x="543.3" y="335" text-anchor="middle">05-19 10:31</text>
    <text x="850" y="335" text-anchor="middle">05-20 03:43</text>
    <text x="471" y="374" text-anchor="middle">real result timestamp</text>
    <text x="20" y="198" text-anchor="middle" transform="rotate(-90 20 198)">Stockfish gate score-rate proxy</text>
  </g>

  <path d="M 92 310 L 213.8 310 L 213.8 249.5 L 850 249.5" fill="none" stroke="#1f6f8b" stroke-width="4" stroke-linejoin="round"/>

  <g fill="#9aa0a6" stroke="#fbfbf8" stroke-width="2">
    <circle cx="92" cy="310" r="4"/>
    <circle cx="164.7" cy="310" r="4"/>
    <circle cx="691.1" cy="310" r="4"/>
    <circle cx="697.7" cy="310" r="4"/>
    <circle cx="704.8" cy="310" r="4"/>
    <circle cx="711.3" cy="310" r="4"/>
    <circle cx="727" cy="310" r="4"/>
    <circle cx="736.7" cy="310" r="4"/>
    <circle cx="745" cy="310" r="4"/>
    <circle cx="748.5" cy="310" r="4"/>
    <circle cx="750" cy="310" r="4"/>
    <circle cx="758" cy="310" r="4"/>
    <circle cx="769.7" cy="310" r="4"/>
    <circle cx="775.7" cy="310" r="4"/>
    <circle cx="780.5" cy="310" r="4"/>
    <circle cx="790.4" cy="310" r="4"/>
    <circle cx="795.6" cy="310" r="4"/>
    <circle cx="797.1" cy="310" r="4"/>
    <circle cx="801.1" cy="310" r="4"/>
    <circle cx="802.6" cy="310" r="4"/>
    <circle cx="802.7" cy="310" r="4"/>
    <circle cx="803.7" cy="310" r="4"/>
    <circle cx="805.9" cy="310" r="4"/>
    <circle cx="811.8" cy="310" r="4"/>
    <circle cx="813.1" cy="310" r="4"/>
    <circle cx="817.4" cy="310" r="4"/>
    <circle cx="817.9" cy="310" r="4"/>
    <circle cx="819.5" cy="310" r="4"/>
    <circle cx="820.2" cy="310" r="4"/>
    <circle cx="828.1" cy="310" r="4"/>
    <circle cx="828.6" cy="310" r="4"/>
    <circle cx="832.1" cy="310" r="4"/>
    <circle cx="832.6" cy="310" r="4"/>
    <circle cx="837.8" cy="310" r="4"/>
    <circle cx="838.9" cy="310" r="4"/>
    <circle cx="839.8" cy="310" r="4"/>
    <circle cx="841.3" cy="310" r="4"/>
    <circle cx="844.4" cy="310" r="4"/>
    <circle cx="850" cy="310" r="4"/>
  </g>

  <g fill="#1f6f8b" stroke="#fbfbf8" stroke-width="2">
    <circle cx="213.8" cy="249.5" r="5"/>
    <circle cx="543.3" cy="249.5" r="5"/>
    <circle cx="677.1" cy="249.5" r="5"/>
  </g>

  <g fill="#ffffff" stroke="#d9822b" stroke-width="2">
    <circle cx="341.5" cy="249.5" r="4"/>
    <circle cx="356.6" cy="249.5" r="4"/>
    <circle cx="604.6" cy="249.5" r="4"/>
    <circle cx="677.1" cy="249.5" r="6"/>
  </g>

  <g font-family="Arial, sans-serif" font-size="12" fill="#202124">
    <text x="258" y="237" font-weight="700" fill="#1f6f8b">0.5/2 material-prior smoke</text>
    <text x="540" y="237" font-weight="700" fill="#1f6f8b">0.5/4 first 4-game draw</text>
    <text x="684" y="268" fill="#1f6f8b">12.5% proxy, about -338 Elo vs gate</text>
    <text x="430" y="229" fill="#9a5b16">one-game PV-line draws</text>
    <text x="752" y="229" fill="#9a5b16">0.5/2 smokes, not confirmed</text>
  </g>

  <g font-family="Arial, sans-serif" font-size="11" fill="#5f6368">
    <rect x="92" y="352" width="16" height="3" fill="#1f6f8b"/>
    <text x="114" y="358">best conservative score-rate proxy</text>
    <circle cx="347" cy="356" r="4" fill="#ffffff" stroke="#d9822b" stroke-width="2"/>
    <text x="358" y="359">volatile positive smoke</text>
    <circle cx="510" cy="356" r="4" fill="#9aa0a6"/>
    <text x="520" y="359">logged zero direct check</text>
  </g>
</svg>
